<mxfile host="app.diagrams.net" agent="Mozilla/5.0 (Windows NT 10.0; Win64; x64; rv:132.0) Gecko/20100101 Firefox/132.0" version="24.8.6">
  <diagram name="Page-1" id="2fNfKSb1KPGcxiVhra7v">
    <mxGraphModel dx="478" dy="726" grid="1" gridSize="10" guides="1" tooltips="1" connect="1" arrows="1" fold="1" page="1" pageScale="1" pageWidth="850" pageHeight="1100" math="0" shadow="0">
      <root>
        <mxCell id="0" />
        <mxCell id="1" parent="0" />
        <mxCell id="tdsLVwdnxEBtSQGXes7N-1" value="" style="endArrow=classic;html=1;rounded=0;" parent="1" target="tdsLVwdnxEBtSQGXes7N-2" edge="1">
          <mxGeometry width="50" height="50" relative="1" as="geometry">
            <mxPoint x="20" y="349" as="sourcePoint" />
            <mxPoint x="100" y="349" as="targetPoint" />
          </mxGeometry>
        </mxCell>
        <mxCell id="tdsLVwdnxEBtSQGXes7N-23" value="" style="edgeStyle=orthogonalEdgeStyle;rounded=0;orthogonalLoop=1;jettySize=auto;html=1;entryX=0;entryY=0.5;entryDx=0;entryDy=0;" parent="1" source="tdsLVwdnxEBtSQGXes7N-2" edge="1" target="tdsLVwdnxEBtSQGXes7N-25">
          <mxGeometry relative="1" as="geometry">
            <mxPoint x="290" y="349" as="targetPoint" />
          </mxGeometry>
        </mxCell>
        <mxCell id="f8j34iCt5yAg45JyZdFL-2" style="edgeStyle=orthogonalEdgeStyle;rounded=0;orthogonalLoop=1;jettySize=auto;html=1;exitX=0.5;exitY=1;exitDx=0;exitDy=0;entryX=0;entryY=0.5;entryDx=0;entryDy=0;curved=1;" parent="1" source="tdsLVwdnxEBtSQGXes7N-2" target="f8j34iCt5yAg45JyZdFL-1" edge="1">
          <mxGeometry relative="1" as="geometry" />
        </mxCell>
        <mxCell id="tdsLVwdnxEBtSQGXes7N-2" value="q0" style="ellipse;whiteSpace=wrap;html=1;aspect=fixed;" parent="1" vertex="1">
          <mxGeometry x="60" y="309" width="81" height="81" as="geometry" />
        </mxCell>
        <mxCell id="tdsLVwdnxEBtSQGXes7N-3" value="start" style="text;html=1;align=center;verticalAlign=middle;resizable=0;points=[];autosize=1;strokeColor=none;fillColor=none;" parent="1" vertex="1">
          <mxGeometry x="12" y="320" width="50" height="30" as="geometry" />
        </mxCell>
        <mxCell id="tdsLVwdnxEBtSQGXes7N-24" value="a-z,A-Z" style="text;html=1;align=center;verticalAlign=middle;resizable=0;points=[];autosize=1;strokeColor=none;fillColor=none;" parent="1" vertex="1">
          <mxGeometry x="180" y="309" width="60" height="30" as="geometry" />
        </mxCell>
        <mxCell id="tdsLVwdnxEBtSQGXes7N-25" value="q1" style="ellipse;shape=doubleEllipse;whiteSpace=wrap;html=1;aspect=fixed;" parent="1" vertex="1">
          <mxGeometry x="280" y="309" width="81" height="81" as="geometry" />
        </mxCell>
        <mxCell id="tdsLVwdnxEBtSQGXes7N-26" value="" style="endArrow=classic;html=1;rounded=0;exitX=1;exitY=0;exitDx=0;exitDy=0;flowAnimation=0;curved=1;" parent="1" source="tdsLVwdnxEBtSQGXes7N-25" target="tdsLVwdnxEBtSQGXes7N-25" edge="1">
          <mxGeometry width="50" height="50" relative="1" as="geometry">
            <mxPoint x="365.5" y="309" as="sourcePoint" />
            <mxPoint x="270" y="310" as="targetPoint" />
            <Array as="points">
              <mxPoint x="375.5" y="249" />
              <mxPoint x="330" y="210" />
              <mxPoint x="280" y="250" />
            </Array>
          </mxGeometry>
        </mxCell>
        <mxCell id="tdsLVwdnxEBtSQGXes7N-27" value="&lt;span style=&quot;text-align: center; text-wrap-mode: nowrap;&quot;&gt;a-z,A-Z,0-9&lt;/span&gt;" style="text;whiteSpace=wrap;html=1;" parent="1" vertex="1">
          <mxGeometry x="301" y="180" width="69" height="40" as="geometry" />
        </mxCell>
        <mxCell id="f8j34iCt5yAg45JyZdFL-1" value="trap" style="ellipse;whiteSpace=wrap;html=1;aspect=fixed;" parent="1" vertex="1">
          <mxGeometry x="169.5" y="420" width="81" height="81" as="geometry" />
        </mxCell>
        <mxCell id="f8j34iCt5yAg45JyZdFL-3" value="0-9" style="text;html=1;align=center;verticalAlign=middle;resizable=0;points=[];autosize=1;strokeColor=none;fillColor=none;" parent="1" vertex="1">
          <mxGeometry x="110" y="410" width="40" height="30" as="geometry" />
        </mxCell>
      </root>
    </mxGraphModel>
  </diagram>
</mxfile>
